# xmcd
#
# Track frame offsets:
#        150
#        25924
#        53659
#        74075
#        97962
#        113133
#        128883
#        153997
#        172862
#        197720
#        216673
#        235112
#
# Disc length: 3478 seconds
#
# Revision: 1
# Processed by: cddbd v1.5.1PL0 Copyright (c) Steve Scherf et al.
# Submitted via: ExactAudioCopy v0.95a4
#
DISCID=a50d940c
DTITLE=elektel - bitstream lounge
DYEAR=2005
DGENRE=
TTITLE0=I love Pod
TTITLE1=Panoramic View of Jazz
TTITLE2=Integrate
TTITLE3=Premium do Brasil
TTITLE4=Desktop Music Adventure
TTITLE5=Jewelle(tales of star children)
TTITLE6=Planet Airways STARSPEEDER3000
TTITLE7=Girl From Ipanema
TTITLE8=Space Cookin Renderd
TTITLE9=Xanadu
TTITLE10=Bit Stream Lounge's Theme
TTITLE11=Panoramic View of Jazz(Ursula 1000 Remix)
EXTD=
EXTT0=
EXTT1=
EXTT2=
EXTT3=
EXTT4=
EXTT5=
EXTT6=
EXTT7=
EXTT8=
EXTT9=
EXTT10=
EXTT11=
PLAYORDER=
